<?xml version="1.0" standalone="no"?>
<!DOCTYPE svg PUBLIC "-//W3C//DTD SVG 20010904//EN"
 "http://www.w3.org/TR/2001/REC-SVG-20010904/DTD/svg10.dtd">
<svg version="1.0" xmlns="http://www.w3.org/2000/svg"
 width="512.000000pt" height="512.000000pt" viewBox="0 0 512.000000 512.000000"
 preserveAspectRatio="xMidYMid meet">

<g transform="translate(0.000000,512.000000) scale(0.100000,-0.100000)"
fill="#000000" stroke="none">
<path d="M0 2560 l0 -2560 2560 0 2560 0 0 2560 0 2560 -2560 0 -2560 0 0
-2560z m1864 1371 c6 -5 37 -12 68 -15 32 -4 60 -11 63 -15 2 -5 27 -11 55
-15 27 -4 50 -11 50 -16 0 -6 8 -10 17 -10 9 0 64 -24 121 -52 147 -75 154
-78 187 -105 17 -13 42 -34 58 -46 73 -58 267 -259 267 -276 0 -4 11 -18 24
-31 14 -12 28 -35 31 -51 4 -16 10 -29 15 -29 12 0 98 -176 106 -216 3 -19 10
-36 14 -39 5 -3 11 -23 15 -45 4 -22 11 -42 16 -46 5 -3 9 -18 9 -33 0 -15 4
-31 9 -36 6 -6 14 -50 18 -100 l8 -90 890 -2 c921 -3 913 -3 955 -42 20 -19
20 -102 0 -123 -36 -35 -57 -38 -294 -38 l-236 0 0 -293 0 -294 -35 -36 c-40
-41 -71 -47 -115 -20 -52 31 -60 79 -60 377 l0 266 -552 -2 -553 -3 -8 -85
c-4 -47 -12 -93 -17 -102 -6 -10 -10 -29 -10 -42 0 -14 -4 -27 -9 -30 -4 -3
-11 -23 -15 -44 -3 -22 -13 -52 -21 -68 -8 -16 -15 -34 -15 -40 0 -16 -81
-174 -110 -214 -25 -35 -44 -64 -56 -89 -14 -27 -227 -251 -239 -251 -3 0 -16
-11 -29 -25 -13 -14 -28 -25 -33 -25 -5 0 -18 -9 -29 -21 -10 -12 -33 -29 -51
-38 -17 -9 -72 -37 -122 -63 -50 -25 -105 -49 -121 -53 -17 -4 -30 -10 -30
-15 0 -5 -21 -12 -47 -16 -27 -3 -53 -10 -59 -15 -6 -5 -37 -11 -70 -15 -32
-4 -64 -10 -69 -15 -18 -13 -266 -20 -360 -10 -118 13 -229 33 -235 42 -3 3
-24 10 -47 14 -24 4 -43 10 -43 15 0 4 -18 10 -40 14 -22 3 -40 11 -40 16 0 6
-6 10 -14 10 -18 0 -198 92 -216 110 -3 3 -27 21 -54 40 -58 42 -256 233 -256
248 0 5 -6 15 -14 22 -18 14 -104 141 -131 192 -11 21 -23 38 -26 38 -4 0 -10
14 -14 31 -4 17 -13 42 -21 57 -8 15 -14 35 -14 44 0 9 -4 19 -9 23 -6 3 -13
26 -17 50 -3 25 -10 45 -14 45 -4 0 -11 28 -15 63 -4 34 -12 68 -19 76 -15 20
-15 442 0 462 7 8 15 42 19 77 4 34 11 62 16 62 5 0 9 12 9 28 0 15 7 40 15
56 8 15 15 33 15 40 1 6 9 29 20 51 11 22 19 48 20 58 0 9 3 17 8 17 4 0 16
17 27 38 74 143 268 366 401 462 27 19 51 37 54 40 8 8 43 30 75 45 17 9 37
19 45 24 36 22 148 71 163 71 9 0 18 4 22 9 3 6 26 13 50 17 25 3 45 10 45 14
0 4 28 11 63 15 34 4 67 11 72 16 6 4 40 10 75 12 95 7 382 -2 394 -12z"/>
<path d="M1465 3740 c-3 -5 -25 -10 -48 -10 -23 -1 -60 -7 -82 -15 -22 -8 -48
-15 -57 -15 -10 0 -18 -4 -18 -9 0 -5 -16 -12 -36 -16 -20 -3 -44 -10 -53 -15
-9 -5 -51 -25 -93 -46 -43 -21 -78 -41 -78 -46 0 -4 -6 -8 -13 -8 -8 0 -23 -8
-35 -17 -11 -10 -36 -29 -54 -43 -38 -28 -172 -162 -206 -206 -12 -16 -31 -40
-42 -53 -11 -13 -20 -28 -20 -33 0 -5 -6 -16 -12 -23 -30 -33 -38 -45 -38 -55
0 -5 -9 -27 -20 -47 -11 -21 -20 -43 -20 -50 0 -7 -4 -13 -9 -13 -5 0 -12 -20
-15 -45 -4 -25 -11 -45 -15 -45 -5 0 -12 -21 -16 -47 -4 -27 -12 -54 -18 -62
-17 -20 -17 -502 0 -522 6 -8 14 -35 18 -61 4 -27 11 -48 16 -48 4 0 11 -20
15 -45 3 -25 10 -45 15 -45 5 0 9 -6 9 -13 0 -7 9 -29 20 -50 11 -20 20 -42
20 -48 0 -6 6 -17 13 -24 28 -33 37 -45 37 -53 0 -5 9 -20 21 -33 11 -13 29
-34 40 -47 10 -12 19 -25 19 -30 0 -4 38 -43 83 -87 109 -105 133 -125 146
-125 6 0 11 -4 11 -10 0 -5 11 -12 25 -16 14 -3 25 -9 25 -13 0 -4 35 -24 78
-45 42 -21 84 -41 93 -46 9 -5 33 -12 53 -15 20 -4 36 -11 36 -15 0 -8 13 -11
115 -30 33 -6 74 -15 91 -21 41 -12 321 -12 329 1 3 6 22 10 42 10 36 0 132
24 165 41 10 5 23 9 30 9 7 1 31 9 53 20 22 11 48 19 58 20 9 0 17 4 17 9 0 5
14 12 30 16 17 4 30 11 30 16 0 5 10 14 23 19 33 15 61 33 70 48 4 6 13 12 18
12 29 0 221 191 257 256 7 13 17 24 21 24 5 0 11 8 15 17 3 10 15 32 26 48 20
31 52 96 77 155 8 19 18 42 23 51 5 9 12 34 16 55 3 22 9 44 13 49 33 54 52
353 32 480 -21 127 -23 135 -32 135 -5 0 -9 12 -9 28 0 15 -7 40 -15 56 -8 15
-15 32 -15 36 0 27 -115 240 -136 253 -8 4 -14 14 -14 21 0 7 -13 25 -30 41
-16 16 -30 32 -30 37 0 16 -180 178 -198 178 -6 0 -15 6 -19 14 -13 21 -95 67
-240 132 -17 8 -38 14 -46 14 -9 0 -19 5 -22 10 -3 6 -16 10 -29 10 -12 0 -26
3 -30 7 -3 4 -14 8 -24 9 -9 2 -44 8 -77 15 -81 16 -371 23 -380 9z"/>
</g>
</svg>
