<?xml version="1.0" standalone="no"?>
<!DOCTYPE svg PUBLIC "-//W3C//DTD SVG 20010904//EN"
 "http://www.w3.org/TR/2001/REC-SVG-20010904/DTD/svg10.dtd">
<svg version="1.0" xmlns="http://www.w3.org/2000/svg"
 width="600.000000pt" height="355.000000pt" viewBox="0 0 600.000000 355.000000"
 preserveAspectRatio="xMidYMid meet">

<g transform="translate(0.000000,355.000000) scale(0.100000,-0.100000)"
fill="#000000" stroke="none">
<path d="M0 1875 l0 -1675 3000 0 3000 0 0 355 0 355 -24 -6 c-18 -4 -27 -1
-34 13 -15 27 1 47 32 41 l26 -5 0 1298 0 1299 -3000 0 -3000 0 0 -1675z
m1321 -175 c18 -10 27 -50 11 -50 -14 0 -53 46 -45 53 8 9 11 9 34 -3z m2176
-56 c8 -21 -13 -42 -28 -27 -13 13 -5 43 11 43 6 0 13 -7 17 -16z m-1317 -14
c0 -5 -9 -10 -20 -10 -11 0 -20 5 -20 10 0 6 9 10 20 10 11 0 20 -4 20 -10z
m1000 -120 c0 -5 -4 -10 -10 -10 -5 0 -10 5 -10 10 0 6 5 10 10 10 6 0 10 -4
10 -10z m655 -40 c3 -5 -1 -10 -9 -10 -9 0 -16 5 -16 10 0 6 4 10 9 10 6 0 13
-4 16 -10z m-775 -10 c0 -5 -4 -10 -10 -10 -5 0 -10 5 -10 10 0 6 5 10 10 10
6 0 10 -4 10 -10z m-115 -40 c3 -5 1 -10 -4 -10 -6 0 -11 5 -11 10 0 6 2 10 4
10 3 0 8 -4 11 -10z m2238 -37 c9 -9 -13 -34 -24 -27 -14 8 -11 34 4 34 8 0
17 -3 20 -7z m-1096 -29 c8 -22 -10 -49 -32 -49 -10 0 -22 7 -28 16 -15 24 -1
49 28 49 15 0 28 -7 32 -16z m-3146 -41 c13 -15 12 -15 -11 -3 -34 17 -36 20
-18 20 9 0 22 -7 29 -17z m1727 -10 c-2 -10 -14 -19 -26 -21 -21 -3 -22 -1
-12 17 13 26 43 28 38 4z m-568 -11 c0 -13 -12 -22 -22 -16 -10 6 -1 24 13 24
5 0 9 -4 9 -8z m-352 -24 c2 -13 -3 -18 -17 -18 -12 0 -21 -5 -21 -10 0 -6
-11 -3 -24 7 -21 15 -23 20 -11 29 23 17 69 12 73 -8z m3957 -11 c23 -17 14
-67 -13 -68 -14 0 -14 -2 3 -8 18 -7 17 -8 -7 -13 -22 -4 -28 -1 -30 15 -2 11
-9 22 -16 23 -7 1 -8 0 -2 -3 15 -7 12 -20 -4 -20 -15 0 -16 14 -2 36 5 8 3
17 -5 23 -11 8 -10 9 3 5 9 -3 22 1 28 9 15 17 21 18 45 1z m-950 -61 c0 -30
-31 -44 -51 -24 -24 24 -11 50 23 46 20 -2 28 -9 28 -22z m-439 3 c7 -12 -15
-31 -28 -23 -4 3 -8 12 -8 20 0 17 26 19 36 3z m-836 -26 c0 -7 5 -13 11 -13
6 0 8 -7 5 -15 -4 -10 2 -19 17 -25 12 -5 17 -9 11 -9 -7 -1 6 -19 28 -41 22
-21 37 -44 34 -49 -3 -5 3 -7 13 -4 15 4 19 0 16 -14 -2 -11 14 -34 43 -61
l47 -44 -60 47 c-33 25 -67 52 -75 58 -79 63 -95 70 -83 41 5 -12 0 -15 -23
-12 -23 2 -29 7 -27 26 2 18 -1 22 -20 18 -88 -19 -154 -16 -141 5 3 5 -10 9
-28 10 -18 0 -66 4 -105 8 -40 4 -73 6 -73 4 0 -1 25 -16 56 -31 43 -22 53
-30 40 -35 -9 -4 -15 -3 -12 2 6 10 -118 68 -159 75 -16 2 22 2 85 -1 195 -8
255 -8 268 0 6 5 12 4 12 -1 0 -10 59 -6 69 4 3 3 4 19 3 37 -3 28 0 32 22 32
15 0 26 -6 26 -12z m-817 -18 c4 -8 2 -17 -3 -20 -6 -4 -10 3 -10 14 0 25 6
27 13 6z m2443 -26 c10 -17 -13 -36 -27 -22 -12 12 -4 33 11 33 5 0 12 -5 16
-11z m-3298 -24 c-3 -3 -9 2 -12 12 -6 14 -5 15 5 6 7 -7 10 -15 7 -18z m452
10 c26 -31 -18 -71 -47 -42 -19 19 -8 57 16 57 10 0 24 -7 31 -15z m685 5 c13
-6 15 -9 5 -9 -8 -1 2 -12 23 -26 20 -14 37 -28 37 -31 0 -3 -13 4 -29 15 -36
26 -41 26 -36 1 4 -23 -3 -25 -27 -6 -21 15 -24 66 -5 65 6 0 21 -4 32 -9z
m-515 -25 c0 -23 -36 -37 -49 -21 -9 11 -7 18 10 30 24 16 39 13 39 -9z m1570
0 c0 -8 -6 -15 -14 -15 -17 0 -28 14 -19 24 12 12 33 6 33 -9z m1300 -19 c0
-11 -19 -15 -25 -6 -3 5 1 10 9 10 9 0 16 -2 16 -4z m-2261 -40 c9 -11 9 -16
-1 -22 -7 -4 -10 -4 -6 1 4 4 3 14 -3 22 -6 7 -9 13 -6 13 2 0 10 -6 16 -14z
m-80 -41 c0 -5 -4 -3 -9 5 -5 8 -9 22 -9 30 0 16 17 -16 18 -35z m-410 -4 c-6
-18 -13 -30 -15 -28 -2 2 1 18 7 36 6 18 13 30 15 28 2 -2 -1 -18 -7 -36z
m3091 14 c0 -8 -7 -15 -15 -15 -8 0 -15 7 -15 15 0 8 7 15 15 15 8 0 15 -7 15
-15z m-3370 -19 c0 -2 -7 -9 -15 -16 -13 -11 -14 -10 -9 4 5 14 24 23 24 12z
m397 -48 c-2 -13 -4 -5 -4 17 -1 22 1 32 4 23 2 -10 2 -28 0 -40z m1708 42 c3
-6 -1 -13 -10 -16 -19 -8 -30 0 -20 15 8 14 22 14 30 1z m603 -27 c-4 -22 -22
-20 -26 1 -2 10 3 16 13 16 10 0 15 -7 13 -17z m-149 -41 c15 -29 -5 -52 -43
-49 -33 2 -35 7 -20 55 5 18 52 14 63 -6z m-2672 -19 c-9 -9 -19 -14 -23 -11
-10 10 6 28 24 28 15 0 15 -1 -1 -17z m1624 -14 c5 -8 6 -20 4 -28 -3 -8 9
-30 27 -50 31 -34 32 -35 3 -10 -16 14 -45 32 -62 39 -18 7 -33 15 -34 19 -6
48 -6 49 24 47 15 -1 33 -9 38 -17z m-1694 -31 c-21 -17 -44 -45 -51 -62 -12
-29 -17 -32 -48 -28 -28 3 -34 8 -34 25 1 27 13 37 48 37 14 0 28 3 30 8 3 7
78 51 88 51 3 0 -12 -14 -33 -31z m3139 21 c3 -6 2 -15 -2 -19 -12 -12 -38 5
-30 19 9 14 23 14 32 0z m-2901 -79 c0 -18 -16 -22 -35 -10 -13 9 -13 11 0 20
19 12 35 8 35 -10z m175 0 c0 -4 -9 -10 -20 -13 -19 -5 -28 12 -14 26 8 7 34
-3 34 -13z m190 5 c10 -12 9 -16 -5 -21 -19 -8 -40 9 -31 25 10 15 21 14 36
-4z m-605 -5 c3 -5 -3 -10 -14 -10 -12 0 -21 5 -21 10 0 6 6 10 14 10 8 0 18
-4 21 -10z m990 -120 c0 -22 -29 -18 -33 3 -3 14 1 18 15 15 10 -2 18 -10 18
-18z m1903 -18 c2 -12 -2 -22 -8 -22 -7 0 -9 7 -6 16 3 8 2 13 -3 9 -5 -3 -11
1 -14 7 -2 8 -8 9 -13 4 -5 -5 -4 -11 4 -13 14 -5 17 -23 3 -23 -12 0 -23 29
-16 41 11 17 50 3 53 -19z m592 3 c0 -20 -5 -25 -24 -25 -14 0 -28 5 -31 10
-12 19 4 40 30 40 20 0 25 -5 25 -25z m-2290 -16 c0 -6 -4 -7 -10 -4 -5 3 -10
11 -10 16 0 6 5 7 10 4 6 -3 10 -11 10 -16z m764 -34 c8 -9 13 -22 9 -31 -5
-13 -9 -12 -29 7 -13 12 -21 26 -18 30 8 13 21 11 38 -6z m-422 -110 c-9 -31
-32 -47 -32 -21 0 14 30 55 37 51 1 0 -1 -14 -5 -30z m-524 -27 c-3 -7 -12
-14 -22 -14 -13 -2 -13 -1 -1 3 8 2 13 9 10 14 -4 5 -1 9 5 9 7 0 10 -6 8 -12z
m2622 -58 c-12 -8 -12 -10 -1 -10 8 0 12 -3 8 -6 -9 -9 -28 6 -22 17 4 5 12 9
18 9 7 0 6 -4 -3 -10z"/>
<path d="M2332 100 c0 -40 2 -47 7 -26 9 42 29 44 34 4 l5 -33 -2 35 c-1 24
-6 35 -16 35 -8 0 -18 9 -22 20 -3 11 -6 -4 -6 -35z"/>
<path d="M2933 100 c0 -30 1 -47 4 -37 5 18 5 18 25 0 21 -18 21 -18 9 5 -10
19 -10 27 1 40 10 13 8 13 -9 -1 -21 -19 -22 -19 -26 15 -2 20 -4 11 -4 -22z"/>
<path d="M3382 143 l28 -4 -20 -39 c-28 -56 -24 -64 5 -10 31 58 31 60 -7 59
-31 -2 -31 -2 -6 -6z"/>
<path d="M3447 144 c-4 -4 -7 -12 -7 -18 0 -6 5 -5 12 2 16 16 28 15 28 -3 0
-8 -5 -15 -12 -15 -6 0 -4 -6 7 -13 10 -8 15 -19 11 -25 -10 -16 -33 -15 -39
1 -4 9 -6 9 -6 -1 -1 -19 29 -27 44 -11 10 10 12 25 6 49 -6 33 -28 49 -44 34z"/>
<path d="M3527 143 c-13 -12 -7 -42 10 -52 15 -8 15 -11 3 -27 -10 -11 -10
-15 -2 -10 6 4 19 21 28 37 12 24 13 34 3 45 -12 15 -31 18 -42 7z m38 -23 c0
-8 -8 -16 -17 -18 -13 -2 -18 3 -18 18 0 15 5 20 18 18 9 -2 17 -10 17 -18z"/>
<path d="M3610 133 c0 -11 3 -14 8 -7 4 6 14 14 22 17 10 4 8 6 -7 6 -16 1
-23 -5 -23 -16z"/>
<path d="M3687 143 c-13 -12 -7 -42 10 -52 15 -8 15 -11 3 -27 -10 -11 -10
-15 -2 -10 6 4 19 21 28 37 12 24 13 34 3 45 -12 15 -31 18 -42 7z m38 -23 c0
-8 -8 -16 -17 -18 -13 -2 -18 3 -18 18 0 15 5 20 18 18 9 -2 17 -10 17 -18z"/>
<path d="M3770 141 c0 -5 -3 -16 -6 -25 -4 -12 0 -16 15 -16 26 0 29 -36 4
-43 -15 -4 -15 -5 -2 -6 26 -2 44 26 29 44 -7 8 -19 15 -26 15 -18 0 -6 28 14
33 12 3 10 5 -5 6 -13 0 -23 -3 -23 -8z"/>
<path d="M3847 143 c-12 -21 -6 -84 9 -90 26 -10 44 18 35 57 -6 32 -33 52
-44 33z m33 -18 c0 -8 -7 -15 -15 -15 -16 0 -20 12 -8 23 11 12 23 8 23 -8z
m5 -45 c0 -8 -8 -16 -17 -18 -13 -2 -18 3 -18 18 0 15 5 20 18 18 9 -2 17 -10
17 -18z"/>
<path d="M3927 144 c-4 -4 -7 -12 -7 -18 0 -6 5 -5 12 2 16 16 28 15 28 -3 0
-8 -5 -15 -12 -15 -6 0 -4 -6 7 -13 10 -8 15 -19 11 -25 -10 -16 -33 -15 -39
1 -4 9 -6 9 -6 -1 -1 -7 6 -15 15 -19 21 -8 49 21 38 39 -5 7 -8 22 -9 33 0
20 -25 32 -38 19z"/>
<path d="M4007 143 c-4 -3 -7 -11 -7 -17 0 -6 5 -5 12 2 16 16 28 15 28 -3 0
-8 -5 -15 -12 -15 -6 0 -4 -6 7 -13 10 -8 15 -19 11 -25 -10 -16 -33 -15 -39
1 -4 9 -6 9 -6 -1 -1 -18 27 -26 43 -13 14 12 15 58 2 79 -8 13 -29 16 -39 5z"/>
<path d="M2467 124 c-9 -10 9 -68 23 -72 12 -4 13 -2 3 9 -16 17 -17 46 -1 51
8 3 6 6 -4 10 -9 4 -18 5 -21 2z"/>
<path d="M2747 124 c-9 -10 9 -68 23 -72 12 -4 13 -2 3 9 -16 17 -17 46 -1 51
8 3 6 6 -4 10 -9 4 -18 5 -21 2z"/>
<path d="M1943 85 c10 -35 27 -48 27 -20 0 8 -4 15 -10 15 -5 0 -10 9 -10 20
0 11 -4 20 -9 20 -5 0 -4 -15 2 -35z"/>
<path d="M1976 111 c-5 -7 -4 -16 1 -20 5 -3 13 -15 17 -26 8 -18 10 -16 24
15 l15 35 10 -32 c12 -39 22 -42 31 -10 l7 22 11 -25 10 -25 16 35 15 35 10
-32 c10 -34 27 -45 27 -18 0 8 -4 15 -10 15 -5 0 -10 9 -10 21 0 29 -33 21
-40 -11 l-6 -25 -11 30 c-11 29 -12 29 -18 8 -9 -29 -25 -30 -25 -2 0 29 -33
21 -40 -11 l-6 -25 -10 30 c-7 21 -13 25 -18 16z"/>
<path d="M2175 110 c-4 -7 -3 -15 2 -19 5 -3 13 -15 17 -26 6 -17 9 -17 15 -5
17 30 24 63 12 56 -6 -4 -11 -17 -12 -29 -1 -19 -2 -19 -13 7 -9 20 -16 25
-21 16z"/>
<path d="M2274 108 c-4 -6 0 -16 9 -23 22 -16 21 -22 0 -28 -16 -4 -16 -5 -1
-6 26 -2 33 20 12 36 -16 12 -17 15 -4 23 9 6 10 10 3 10 -6 0 -15 -5 -19 -12z"/>
<path d="M2404 91 c0 -21 7 -36 16 -38 10 -3 11 -2 3 4 -6 4 -13 22 -16 38 -4
27 -5 27 -3 -4z"/>
<path d="M2443 85 c0 -22 2 -30 4 -17 2 12 2 30 0 40 -3 9 -5 -1 -4 -23z"/>
<path d="M2519 88 c4 -17 13 -34 21 -36 12 -4 13 -2 3 9 -7 7 -13 21 -13 30 0
10 6 20 13 22 6 3 2 6 -9 6 -19 1 -21 -3 -15 -31z"/>
<path d="M2574 106 c-9 -23 0 -51 16 -52 9 0 10 1 3 3 -21 7 -15 23 8 23 14 0
19 5 17 17 -4 23 -36 29 -44 9z m36 -6 c0 -5 -7 -10 -15 -10 -8 0 -15 5 -15
10 0 6 7 10 15 10 8 0 15 -4 15 -10z"/>
<path d="M2641 81 c1 -28 3 -30 6 -11 3 14 9 30 14 36 5 7 3 11 -6 11 -11 0
-15 -11 -14 -36z"/>
<path d="M2694 108 c-4 -6 0 -16 9 -23 22 -16 21 -22 0 -28 -16 -4 -16 -5 -1
-6 26 -2 33 20 12 36 -16 12 -17 15 -4 23 9 6 10 10 3 10 -6 0 -15 -5 -19 -12z"/>
<path d="M2807 114 c-13 -13 -7 -55 9 -61 24 -9 51 23 38 45 -12 19 -36 27
-47 16z m36 -16 c6 -19 -3 -38 -19 -38 -8 0 -14 10 -14 25 0 26 25 35 33 13z"/>
<path d="M2874 106 c-9 -23 0 -51 16 -52 9 0 10 1 3 3 -20 7 -16 51 5 56 16 4
16 5 -1 6 -10 0 -20 -5 -23 -13z"/>
<path d="M3034 106 c-9 -23 0 -51 16 -52 9 0 10 1 3 3 -20 7 -16 51 5 56 16 4
16 5 -1 6 -10 0 -20 -5 -23 -13z"/>
<path d="M3097 114 c-13 -13 -7 -55 9 -61 24 -9 51 23 38 45 -12 19 -36 27
-47 16z m36 -16 c6 -19 -3 -38 -19 -38 -8 0 -14 10 -14 25 0 26 25 35 33 13z"/>
<path d="M3163 85 c0 -22 2 -30 4 -17 2 12 2 30 0 40 -3 9 -5 -1 -4 -23z"/>
<path d="M3187 112 c6 -4 13 -21 16 -37 l4 -30 2 33 c1 41 23 39 33 -4 6 -27
6 -27 5 6 -2 32 -4 35 -36 37 -19 1 -30 -2 -24 -5z"/>
<path d="M3618 103 c26 -5 30 -39 5 -46 -15 -4 -15 -5 -2 -6 9 0 22 6 29 14
16 20 -4 46 -34 44 -20 -2 -20 -2 2 -6z"/>
</g>
</svg>
